<?xml version="1.0" encoding="UTF-8"?>
<svg id="Layer_2" data-name="Layer 2" xmlns="http://www.w3.org/2000/svg" xmlns:xlink="http://www.w3.org/1999/xlink" viewBox="0 0 1015.17 768">
  <defs>
    <style>
      .cls-1, .cls-2, .cls-3 {
        fill: #fff;
      }

      .cls-2 {
        font-size: 36.85px;
      }

      .cls-2, .cls-3 {
        font-family: PressStart2P-Regular, 'Press Start 2P';
      }

      .cls-4 {
        opacity: .2;
      }

      .cls-5 {
        fill: blue;
      }

      .cls-6 {
        opacity: .8;
      }

      .cls-7 {
        stroke: #fff;
        stroke-miterlimit: 10;
        stroke-width: 2px;
      }

      .cls-7, .cls-8 {
        fill: none;
      }

      .cls-9 {
        clip-path: url(#clippath);
      }

      .cls-3 {
        font-size: 28.46px;
      }
    </style>
    <clipPath id="clippath">
      <rect class="cls-8" x="95" y="184" width="800" height="400" rx="22.93" ry="22.93"/>
    </clipPath>
  </defs>
  <g>
    <rect class="cls-5" x="95" y="184" width="800" height="400" rx="22.93" ry="22.93"/>
    <g class="cls-9">
      <g class="cls-6">
        <g class="cls-4">
          <path class="cls-1" d="m59.38,238.54c0-4.89,0-9.79,0-14.68,0-1.38.57-1.69,3.33-1.71,4.12-.02,8.24-.02,12.37,0,2.61,0,3.32.38,3.33,1.66,0,1.97-.01,3.94,0,5.92.01,1.56.47,1.78,3.57,1.78,6.9,0,13.8,0,20.71,0,.67,0,1.35,0,2.01.06,1.19.09,1.85.47,1.97,1.05.05.26.04.52.04.78,0,6.58,0,13.16,0,19.74,0,.26,0,.52-.04.78-.1.67-.87,1.03-2.2,1.09-.62.03-1.24.03-1.87.03-13.08,0-26.17,0-39.25,0-.57,0-1.15,0-1.72-.03-1.39-.07-2.17-.45-2.21-1.16-.05-.95-.02-1.9-.02-2.85,0-4.16,0-8.31,0-12.47Z"/>
          <path class="cls-1" d="m187.01,255.06c-6.66,0-13.32,0-19.98,0-3.19,0-3.76-.3-3.76-1.87,0-6.65,0-13.3,0-19.95,0-1.32.73-1.72,3.38-1.72,13.56,0,27.12,0,40.67,0,2.56,0,3.36.4,3.36,1.67.02,6.74.02,13.49,0,20.23,0,1.25-.76,1.62-3.27,1.62-6.8.02-13.61,0-20.41,0h0Z"/>
          <path class="cls-1" d="m135.02,255.06c-6.71,0-13.42,0-20.12,0-2.94,0-3.63-.34-3.63-1.81,0-6.65-.01-13.3,0-19.95,0-1.4.77-1.78,3.58-1.78,13.42,0,26.83,0,40.25,0,2.93,0,3.6.36,3.6,1.83,0,6.65,0,13.3,0,19.95,0,1.43-.64,1.76-3.55,1.76-6.71.01-13.42,0-20.12,0Z"/>
          <path class="cls-1" d="m238.92,255.06c-6.66,0-13.32,0-19.98,0-3.13,0-3.69-.28-3.69-1.82,0-6.62,0-13.25,0-19.87,0-1.52.65-1.84,3.69-1.85,13.27,0,26.54,0,39.81,0,.43,0,.86,0,1.29.03,1.76.09,2.48.45,2.52,1.32.03.71.01,1.42.01,2.14,0,6.08,0,12.16,0,18.24,0,1.55-.52,1.82-3.68,1.82-6.66,0-13.32,0-19.98,0Z"/>
        </g>
        <g class="cls-4">
          <path class="cls-1" d="m312.7,236.54c0-4.89,0-9.79,0-14.68,0-1.38.57-1.69,3.33-1.71,4.12-.02,8.24-.02,12.37,0,2.61,0,3.32.38,3.33,1.66,0,1.97-.01,3.94,0,5.92.01,1.56.47,1.78,3.57,1.78,6.9,0,13.8,0,20.71,0,.67,0,1.35,0,2.01.06,1.19.09,1.85.47,1.97,1.05.05.26.04.52.04.78,0,6.58,0,13.16,0,19.74,0,.26,0,.52-.04.78-.1.67-.87,1.03-2.2,1.09-.62.03-1.24.03-1.87.03-13.08,0-26.17,0-39.25,0-.57,0-1.15,0-1.72-.03-1.39-.07-2.17-.45-2.21-1.16-.05-.95-.02-1.9-.02-2.85,0-4.16,0-8.31,0-12.47Z"/>
          <path class="cls-1" d="m440.32,253.05c-6.66,0-13.32,0-19.98,0-3.19,0-3.76-.3-3.76-1.87,0-6.65,0-13.3,0-19.95,0-1.32.73-1.72,3.38-1.72,13.56,0,27.12,0,40.67,0,2.56,0,3.36.4,3.36,1.67.02,6.74.02,13.49,0,20.23,0,1.25-.76,1.62-3.27,1.62-6.8.02-13.61,0-20.41,0h0Z"/>
          <path class="cls-1" d="m388.34,253.05c-6.71,0-13.42,0-20.12,0-2.94,0-3.63-.34-3.63-1.81,0-6.65-.01-13.3,0-19.95,0-1.4.77-1.78,3.58-1.78,13.42,0,26.83,0,40.25,0,2.93,0,3.6.36,3.6,1.83,0,6.65,0,13.3,0,19.95,0,1.43-.64,1.76-3.55,1.76-6.71.01-13.42,0-20.12,0Z"/>
          <path class="cls-1" d="m492.24,253.05c-6.66,0-13.32,0-19.98,0-3.13,0-3.69-.28-3.69-1.82,0-6.62,0-13.25,0-19.87,0-1.52.65-1.84,3.69-1.85,13.27,0,26.54,0,39.81,0,.43,0,.86,0,1.29.03,1.76.09,2.48.45,2.52,1.32.03.71.01,1.42.01,2.14,0,6.08,0,12.16,0,18.24,0,1.55-.52,1.82-3.68,1.82-6.66,0-13.32,0-19.98,0Z"/>
        </g>
        <g class="cls-4">
          <path class="cls-1" d="m562.33,238.54c0-4.89,0-9.79,0-14.68,0-1.38.57-1.69,3.33-1.71,4.12-.02,8.24-.02,12.37,0,2.61,0,3.32.38,3.33,1.66,0,1.97-.01,3.94,0,5.92.01,1.56.47,1.78,3.57,1.78,6.9,0,13.8,0,20.71,0,.67,0,1.35,0,2.01.06,1.19.09,1.85.47,1.97,1.05.05.26.04.52.04.78,0,6.58,0,13.16,0,19.74,0,.26,0,.52-.04.78-.1.67-.87,1.03-2.2,1.09-.62.03-1.24.03-1.87.03-13.08,0-26.17,0-39.25,0-.57,0-1.15,0-1.72-.03-1.39-.07-2.17-.45-2.21-1.16-.05-.95-.02-1.9-.02-2.85,0-4.16,0-8.31,0-12.47Z"/>
          <path class="cls-1" d="m689.95,255.06c-6.66,0-13.32,0-19.98,0-3.19,0-3.76-.3-3.76-1.87,0-6.65,0-13.3,0-19.95,0-1.32.73-1.72,3.38-1.72,13.56,0,27.12,0,40.67,0,2.56,0,3.36.4,3.36,1.67.02,6.74.02,13.49,0,20.23,0,1.25-.76,1.62-3.27,1.62-6.8.02-13.61,0-20.41,0h0Z"/>
          <path class="cls-1" d="m637.97,255.06c-6.71,0-13.42,0-20.12,0-2.94,0-3.63-.34-3.63-1.81,0-6.65-.01-13.3,0-19.95,0-1.4.77-1.78,3.58-1.78,13.42,0,26.83,0,40.25,0,2.93,0,3.6.36,3.6,1.83,0,6.65,0,13.3,0,19.95,0,1.43-.64,1.76-3.55,1.76-6.71.01-13.42,0-20.12,0Z"/>
          <path class="cls-1" d="m741.87,255.06c-6.66,0-13.32,0-19.98,0-3.13,0-3.69-.28-3.69-1.82,0-6.62,0-13.25,0-19.87,0-1.52.65-1.84,3.69-1.85,13.27,0,26.54,0,39.81,0,.43,0,.86,0,1.29.03,1.76.09,2.48.45,2.52,1.32.03.71.01,1.42.01,2.14,0,6.08,0,12.16,0,18.24,0,1.55-.52,1.82-3.68,1.82-6.66,0-13.32,0-19.98,0Z"/>
        </g>
        <g class="cls-4">
          <path class="cls-1" d="m811.96,238.54c0-4.89,0-9.79,0-14.68,0-1.38.57-1.69,3.33-1.71,4.12-.02,8.24-.02,12.37,0,2.61,0,3.32.38,3.33,1.66,0,1.97-.01,3.94,0,5.92.01,1.56.47,1.78,3.57,1.78,6.9,0,13.8,0,20.71,0,.67,0,1.35,0,2.01.06,1.19.09,1.85.47,1.97,1.05.05.26.04.52.04.78,0,6.58,0,13.16,0,19.74,0,.26,0,.52-.04.78-.1.67-.87,1.03-2.2,1.09-.62.03-1.24.03-1.87.03-13.08,0-26.17,0-39.25,0-.57,0-1.15,0-1.72-.03-1.39-.07-2.17-.45-2.21-1.16-.05-.95-.02-1.9-.02-2.85,0-4.16,0-8.31,0-12.47Z"/>
          <path class="cls-1" d="m939.59,255.06c-6.66,0-13.32,0-19.98,0-3.19,0-3.76-.3-3.76-1.87,0-6.65,0-13.3,0-19.95,0-1.32.73-1.72,3.38-1.72,13.56,0,27.12,0,40.67,0,2.56,0,3.36.4,3.36,1.67.02,6.74.02,13.49,0,20.23,0,1.25-.76,1.62-3.27,1.62-6.8.02-13.61,0-20.41,0h0Z"/>
          <path class="cls-1" d="m887.6,255.06c-6.71,0-13.42,0-20.12,0-2.94,0-3.63-.34-3.63-1.81,0-6.65-.01-13.3,0-19.95,0-1.4.77-1.78,3.58-1.78,13.42,0,26.83,0,40.25,0,2.93,0,3.6.36,3.6,1.83,0,6.65,0,13.3,0,19.95,0,1.43-.64,1.76-3.55,1.76-6.71.01-13.42,0-20.12,0Z"/>
          <path class="cls-1" d="m991.5,255.06c-6.66,0-13.32,0-19.98,0-3.13,0-3.69-.28-3.69-1.82,0-6.62,0-13.25,0-19.87,0-1.52.65-1.84,3.69-1.85,13.27,0,26.54,0,39.81,0,.43,0,.86,0,1.29.03,1.76.09,2.48.45,2.52,1.32.03.71.01,1.42.01,2.14,0,6.08,0,12.16,0,18.24,0,1.55-.52,1.82-3.68,1.82-6.66,0-13.32,0-19.98,0Z"/>
        </g>
        <g class="cls-4">
          <path class="cls-1" d="m59.38,333.75c0-4.89,0-9.79,0-14.68,0-1.38.57-1.69,3.33-1.71,4.12-.02,8.24-.02,12.37,0,2.61,0,3.32.38,3.33,1.66,0,1.97-.01,3.94,0,5.92.01,1.56.47,1.78,3.57,1.78,6.9,0,13.8,0,20.71,0,.67,0,1.35,0,2.01.06,1.19.09,1.85.47,1.97,1.05.05.26.04.52.04.78,0,6.58,0,13.16,0,19.74,0,.26,0,.52-.04.78-.1.67-.87,1.03-2.2,1.09-.62.03-1.24.03-1.87.03-13.08,0-26.17,0-39.25,0-.57,0-1.15,0-1.72-.03-1.39-.07-2.17-.45-2.21-1.16-.05-.95-.02-1.9-.02-2.85,0-4.16,0-8.31,0-12.47Z"/>
          <path class="cls-1" d="m187.01,350.26c-6.66,0-13.32,0-19.98,0-3.19,0-3.76-.3-3.76-1.87,0-6.65,0-13.3,0-19.95,0-1.32.73-1.72,3.38-1.72,13.56,0,27.12,0,40.67,0,2.56,0,3.36.4,3.36,1.67.02,6.74.02,13.49,0,20.23,0,1.25-.76,1.62-3.27,1.62-6.8.02-13.61,0-20.41,0h0Z"/>
          <path class="cls-1" d="m135.02,350.26c-6.71,0-13.42,0-20.12,0-2.94,0-3.63-.34-3.63-1.81,0-6.65-.01-13.3,0-19.95,0-1.4.77-1.78,3.58-1.78,13.42,0,26.83,0,40.25,0,2.93,0,3.6.36,3.6,1.83,0,6.65,0,13.3,0,19.95,0,1.43-.64,1.76-3.55,1.76-6.71.01-13.42,0-20.12,0Z"/>
          <path class="cls-1" d="m238.92,350.26c-6.66,0-13.32,0-19.98,0-3.13,0-3.69-.28-3.69-1.82,0-6.62,0-13.25,0-19.87,0-1.52.65-1.84,3.69-1.85,13.27,0,26.54,0,39.81,0,.43,0,.86,0,1.29.03,1.76.09,2.48.45,2.52,1.32.03.71.01,1.42.01,2.14,0,6.08,0,12.16,0,18.24,0,1.55-.52,1.82-3.68,1.82-6.66,0-13.32,0-19.98,0Z"/>
        </g>
        <g class="cls-4">
          <path class="cls-1" d="m312.7,331.75c0-4.89,0-9.79,0-14.68,0-1.38.57-1.69,3.33-1.71,4.12-.02,8.24-.02,12.37,0,2.61,0,3.32.38,3.33,1.66,0,1.97-.01,3.94,0,5.92.01,1.56.47,1.78,3.57,1.78,6.9,0,13.8,0,20.71,0,.67,0,1.35,0,2.01.06,1.19.09,1.85.47,1.97,1.05.05.26.04.52.04.78,0,6.58,0,13.16,0,19.74,0,.26,0,.52-.04.78-.1.67-.87,1.03-2.2,1.09-.62.03-1.24.03-1.87.03-13.08,0-26.17,0-39.25,0-.57,0-1.15,0-1.72-.03-1.39-.07-2.17-.45-2.21-1.16-.05-.95-.02-1.9-.02-2.85,0-4.16,0-8.31,0-12.47Z"/>
          <path class="cls-1" d="m440.32,348.26c-6.66,0-13.32,0-19.98,0-3.19,0-3.76-.3-3.76-1.87,0-6.65,0-13.3,0-19.95,0-1.32.73-1.72,3.38-1.72,13.56,0,27.12,0,40.67,0,2.56,0,3.36.4,3.36,1.67.02,6.74.02,13.49,0,20.23,0,1.25-.76,1.62-3.27,1.62-6.8.02-13.61,0-20.41,0h0Z"/>
          <path class="cls-1" d="m388.34,348.26c-6.71,0-13.42,0-20.12,0-2.94,0-3.63-.34-3.63-1.81,0-6.65-.01-13.3,0-19.95,0-1.4.77-1.78,3.58-1.78,13.42,0,26.83,0,40.25,0,2.93,0,3.6.36,3.6,1.83,0,6.65,0,13.3,0,19.95,0,1.43-.64,1.76-3.55,1.76-6.71.01-13.42,0-20.12,0Z"/>
          <path class="cls-1" d="m492.24,348.26c-6.66,0-13.32,0-19.98,0-3.13,0-3.69-.28-3.69-1.82,0-6.62,0-13.25,0-19.87,0-1.52.65-1.84,3.69-1.85,13.27,0,26.54,0,39.81,0,.43,0,.86,0,1.29.03,1.76.09,2.48.45,2.52,1.32.03.71.01,1.42.01,2.14,0,6.08,0,12.16,0,18.24,0,1.55-.52,1.82-3.68,1.82-6.66,0-13.32,0-19.98,0Z"/>
        </g>
        <g class="cls-4">
          <path class="cls-1" d="m562.33,333.75c0-4.89,0-9.79,0-14.68,0-1.38.57-1.69,3.33-1.71,4.12-.02,8.24-.02,12.37,0,2.61,0,3.32.38,3.33,1.66,0,1.97-.01,3.94,0,5.92.01,1.56.47,1.78,3.57,1.78,6.9,0,13.8,0,20.71,0,.67,0,1.35,0,2.01.06,1.19.09,1.85.47,1.97,1.05.05.26.04.52.04.78,0,6.58,0,13.16,0,19.74,0,.26,0,.52-.04.78-.1.67-.87,1.03-2.2,1.09-.62.03-1.24.03-1.87.03-13.08,0-26.17,0-39.25,0-.57,0-1.15,0-1.72-.03-1.39-.07-2.17-.45-2.21-1.16-.05-.95-.02-1.9-.02-2.85,0-4.16,0-8.31,0-12.47Z"/>
          <path class="cls-1" d="m689.95,350.26c-6.66,0-13.32,0-19.98,0-3.19,0-3.76-.3-3.76-1.87,0-6.65,0-13.3,0-19.95,0-1.32.73-1.72,3.38-1.72,13.56,0,27.12,0,40.67,0,2.56,0,3.36.4,3.36,1.67.02,6.74.02,13.49,0,20.23,0,1.25-.76,1.62-3.27,1.62-6.8.02-13.61,0-20.41,0h0Z"/>
          <path class="cls-1" d="m637.97,350.26c-6.71,0-13.42,0-20.12,0-2.94,0-3.63-.34-3.63-1.81,0-6.65-.01-13.3,0-19.95,0-1.4.77-1.78,3.58-1.78,13.42,0,26.83,0,40.25,0,2.93,0,3.6.36,3.6,1.83,0,6.65,0,13.3,0,19.95,0,1.43-.64,1.76-3.55,1.76-6.71.01-13.42,0-20.12,0Z"/>
          <path class="cls-1" d="m741.87,350.26c-6.66,0-13.32,0-19.98,0-3.13,0-3.69-.28-3.69-1.82,0-6.62,0-13.25,0-19.87,0-1.52.65-1.84,3.69-1.85,13.27,0,26.54,0,39.81,0,.43,0,.86,0,1.29.03,1.76.09,2.48.45,2.52,1.32.03.71.01,1.42.01,2.14,0,6.08,0,12.16,0,18.24,0,1.55-.52,1.82-3.68,1.82-6.66,0-13.32,0-19.98,0Z"/>
        </g>
        <g class="cls-4">
          <path class="cls-1" d="m811.96,333.75c0-4.89,0-9.79,0-14.68,0-1.38.57-1.69,3.33-1.71,4.12-.02,8.24-.02,12.37,0,2.61,0,3.32.38,3.33,1.66,0,1.97-.01,3.94,0,5.92.01,1.56.47,1.78,3.57,1.78,6.9,0,13.8,0,20.71,0,.67,0,1.35,0,2.01.06,1.19.09,1.85.47,1.97,1.05.05.26.04.52.04.78,0,6.58,0,13.16,0,19.74,0,.26,0,.52-.04.78-.1.67-.87,1.03-2.2,1.09-.62.03-1.24.03-1.87.03-13.08,0-26.17,0-39.25,0-.57,0-1.15,0-1.72-.03-1.39-.07-2.17-.45-2.21-1.16-.05-.95-.02-1.9-.02-2.85,0-4.16,0-8.31,0-12.47Z"/>
          <path class="cls-1" d="m939.59,350.26c-6.66,0-13.32,0-19.98,0-3.19,0-3.76-.3-3.76-1.87,0-6.65,0-13.3,0-19.95,0-1.32.73-1.72,3.38-1.72,13.56,0,27.12,0,40.67,0,2.56,0,3.36.4,3.36,1.67.02,6.74.02,13.49,0,20.23,0,1.25-.76,1.62-3.27,1.62-6.8.02-13.61,0-20.41,0h0Z"/>
          <path class="cls-1" d="m887.6,350.26c-6.71,0-13.42,0-20.12,0-2.94,0-3.63-.34-3.63-1.81,0-6.65-.01-13.3,0-19.95,0-1.4.77-1.78,3.58-1.78,13.42,0,26.83,0,40.25,0,2.93,0,3.6.36,3.6,1.83,0,6.65,0,13.3,0,19.95,0,1.43-.64,1.76-3.55,1.76-6.71.01-13.42,0-20.12,0Z"/>
          <path class="cls-1" d="m991.5,350.26c-6.66,0-13.32,0-19.98,0-3.13,0-3.69-.28-3.69-1.82,0-6.62,0-13.25,0-19.87,0-1.52.65-1.84,3.69-1.85,13.27,0,26.54,0,39.81,0,.43,0,.86,0,1.29.03,1.76.09,2.48.45,2.52,1.32.03.71.01,1.42.01,2.14,0,6.08,0,12.16,0,18.24,0,1.55-.52,1.82-3.68,1.82-6.66,0-13.32,0-19.98,0Z"/>
        </g>
        <g class="cls-4">
          <path class="cls-1" d="m59.38,430.96c0-4.89,0-9.79,0-14.68,0-1.38.57-1.69,3.33-1.71,4.12-.02,8.24-.02,12.37,0,2.61,0,3.32.38,3.33,1.66,0,1.97-.01,3.94,0,5.92.01,1.56.47,1.78,3.57,1.78,6.9,0,13.8,0,20.71,0,.67,0,1.35,0,2.01.06,1.19.09,1.85.47,1.97,1.05.05.26.04.52.04.78,0,6.58,0,13.16,0,19.74,0,.26,0,.52-.04.78-.1.67-.87,1.03-2.2,1.09-.62.03-1.24.03-1.87.03-13.08,0-26.17,0-39.25,0-.57,0-1.15,0-1.72-.03-1.39-.07-2.17-.45-2.21-1.16-.05-.95-.02-1.9-.02-2.85,0-4.16,0-8.31,0-12.47Z"/>
          <path class="cls-1" d="m187.01,447.48c-6.66,0-13.32,0-19.98,0-3.19,0-3.76-.3-3.76-1.87,0-6.65,0-13.3,0-19.95,0-1.32.73-1.72,3.38-1.72,13.56,0,27.12,0,40.67,0,2.56,0,3.36.4,3.36,1.67.02,6.74.02,13.49,0,20.23,0,1.25-.76,1.62-3.27,1.62-6.8.02-13.61,0-20.41,0h0Z"/>
          <path class="cls-1" d="m135.02,447.48c-6.71,0-13.42,0-20.12,0-2.94,0-3.63-.34-3.63-1.81,0-6.65-.01-13.3,0-19.95,0-1.4.77-1.78,3.58-1.78,13.42,0,26.83,0,40.25,0,2.93,0,3.6.36,3.6,1.83,0,6.65,0,13.3,0,19.95,0,1.43-.64,1.76-3.55,1.76-6.71.01-13.42,0-20.12,0Z"/>
          <path class="cls-1" d="m238.92,447.48c-6.66,0-13.32,0-19.98,0-3.13,0-3.69-.28-3.69-1.82,0-6.62,0-13.25,0-19.87,0-1.52.65-1.84,3.69-1.85,13.27,0,26.54,0,39.81,0,.43,0,.86,0,1.29.03,1.76.09,2.48.45,2.52,1.32.03.71.01,1.42.01,2.14,0,6.08,0,12.16,0,18.24,0,1.55-.52,1.82-3.68,1.82-6.66,0-13.32,0-19.98,0Z"/>
        </g>
        <g class="cls-4">
          <path class="cls-1" d="m312.7,428.96c0-4.89,0-9.79,0-14.68,0-1.38.57-1.69,3.33-1.71,4.12-.02,8.24-.02,12.37,0,2.61,0,3.32.38,3.33,1.66,0,1.97-.01,3.94,0,5.92.01,1.56.47,1.78,3.57,1.78,6.9,0,13.8,0,20.71,0,.67,0,1.35,0,2.01.06,1.19.09,1.85.47,1.97,1.05.05.26.04.52.04.78,0,6.58,0,13.16,0,19.74,0,.26,0,.52-.04.78-.1.67-.87,1.03-2.2,1.09-.62.03-1.24.03-1.87.03-13.08,0-26.17,0-39.25,0-.57,0-1.15,0-1.72-.03-1.39-.07-2.17-.45-2.21-1.16-.05-.95-.02-1.9-.02-2.85,0-4.16,0-8.31,0-12.47Z"/>
          <path class="cls-1" d="m440.32,445.47c-6.66,0-13.32,0-19.98,0-3.19,0-3.76-.3-3.76-1.87,0-6.65,0-13.3,0-19.95,0-1.32.73-1.72,3.38-1.72,13.56,0,27.12,0,40.67,0,2.56,0,3.36.4,3.36,1.67.02,6.74.02,13.49,0,20.23,0,1.25-.76,1.62-3.27,1.62-6.8.02-13.61,0-20.41,0h0Z"/>
          <path class="cls-1" d="m388.34,445.47c-6.71,0-13.42,0-20.12,0-2.94,0-3.63-.34-3.63-1.81,0-6.65-.01-13.3,0-19.95,0-1.4.77-1.78,3.58-1.78,13.42,0,26.83,0,40.25,0,2.93,0,3.6.36,3.6,1.83,0,6.65,0,13.3,0,19.95,0,1.43-.64,1.76-3.55,1.76-6.71.01-13.42,0-20.12,0Z"/>
          <path class="cls-1" d="m492.24,445.47c-6.66,0-13.32,0-19.98,0-3.13,0-3.69-.28-3.69-1.82,0-6.62,0-13.25,0-19.87,0-1.52.65-1.84,3.69-1.85,13.27,0,26.54,0,39.81,0,.43,0,.86,0,1.29.03,1.76.09,2.48.45,2.52,1.32.03.71.01,1.42.01,2.14,0,6.08,0,12.16,0,18.24,0,1.55-.52,1.82-3.68,1.82-6.66,0-13.32,0-19.98,0Z"/>
        </g>
        <g class="cls-4">
          <path class="cls-1" d="m562.33,430.96c0-4.89,0-9.79,0-14.68,0-1.38.57-1.69,3.33-1.71,4.12-.02,8.24-.02,12.37,0,2.61,0,3.32.38,3.33,1.66,0,1.97-.01,3.94,0,5.92.01,1.56.47,1.78,3.57,1.78,6.9,0,13.8,0,20.71,0,.67,0,1.35,0,2.01.06,1.19.09,1.85.47,1.97,1.05.05.26.04.52.04.78,0,6.58,0,13.16,0,19.74,0,.26,0,.52-.04.78-.1.67-.87,1.03-2.2,1.09-.62.03-1.24.03-1.87.03-13.08,0-26.17,0-39.25,0-.57,0-1.15,0-1.72-.03-1.39-.07-2.17-.45-2.21-1.16-.05-.95-.02-1.9-.02-2.85,0-4.16,0-8.31,0-12.47Z"/>
          <path class="cls-1" d="m689.95,447.48c-6.66,0-13.32,0-19.98,0-3.19,0-3.76-.3-3.76-1.87,0-6.65,0-13.3,0-19.95,0-1.32.73-1.72,3.38-1.72,13.56,0,27.12,0,40.67,0,2.56,0,3.36.4,3.36,1.67.02,6.74.02,13.49,0,20.23,0,1.25-.76,1.62-3.27,1.62-6.8.02-13.61,0-20.41,0h0Z"/>
          <path class="cls-1" d="m637.97,447.48c-6.71,0-13.42,0-20.12,0-2.94,0-3.63-.34-3.63-1.81,0-6.65-.01-13.3,0-19.95,0-1.4.77-1.78,3.58-1.78,13.42,0,26.83,0,40.25,0,2.93,0,3.6.36,3.6,1.83,0,6.65,0,13.3,0,19.95,0,1.43-.64,1.76-3.55,1.76-6.71.01-13.42,0-20.12,0Z"/>
          <path class="cls-1" d="m741.87,447.48c-6.66,0-13.32,0-19.98,0-3.13,0-3.69-.28-3.69-1.82,0-6.62,0-13.25,0-19.87,0-1.52.65-1.84,3.69-1.85,13.27,0,26.54,0,39.81,0,.43,0,.86,0,1.29.03,1.76.09,2.48.45,2.52,1.32.03.71.01,1.42.01,2.14,0,6.08,0,12.16,0,18.24,0,1.55-.52,1.82-3.68,1.82-6.66,0-13.32,0-19.98,0Z"/>
        </g>
        <g class="cls-4">
          <path class="cls-1" d="m811.96,430.96c0-4.89,0-9.79,0-14.68,0-1.38.57-1.69,3.33-1.71,4.12-.02,8.24-.02,12.37,0,2.61,0,3.32.38,3.33,1.66,0,1.97-.01,3.94,0,5.92.01,1.56.47,1.78,3.57,1.78,6.9,0,13.8,0,20.71,0,.67,0,1.35,0,2.01.06,1.19.09,1.85.47,1.97,1.05.05.26.04.52.04.78,0,6.58,0,13.16,0,19.74,0,.26,0,.52-.04.78-.1.67-.87,1.03-2.2,1.09-.62.03-1.24.03-1.87.03-13.08,0-26.17,0-39.25,0-.57,0-1.15,0-1.72-.03-1.39-.07-2.17-.45-2.21-1.16-.05-.95-.02-1.9-.02-2.85,0-4.16,0-8.31,0-12.47Z"/>
          <path class="cls-1" d="m939.59,447.48c-6.66,0-13.32,0-19.98,0-3.19,0-3.76-.3-3.76-1.87,0-6.65,0-13.3,0-19.95,0-1.32.73-1.72,3.38-1.72,13.56,0,27.12,0,40.67,0,2.56,0,3.36.4,3.36,1.67.02,6.74.02,13.49,0,20.23,0,1.25-.76,1.62-3.27,1.62-6.8.02-13.61,0-20.41,0h0Z"/>
          <path class="cls-1" d="m887.6,447.48c-6.71,0-13.42,0-20.12,0-2.94,0-3.63-.34-3.63-1.81,0-6.65-.01-13.3,0-19.95,0-1.4.77-1.78,3.58-1.78,13.42,0,26.83,0,40.25,0,2.93,0,3.6.36,3.6,1.83,0,6.65,0,13.3,0,19.95,0,1.43-.64,1.76-3.55,1.76-6.71.01-13.42,0-20.12,0Z"/>
          <path class="cls-1" d="m991.5,447.48c-6.66,0-13.32,0-19.98,0-3.13,0-3.69-.28-3.69-1.82,0-6.62,0-13.25,0-19.87,0-1.52.65-1.84,3.69-1.85,13.27,0,26.54,0,39.81,0,.43,0,.86,0,1.29.03,1.76.09,2.48.45,2.52,1.32.03.71.01,1.42.01,2.14,0,6.08,0,12.16,0,18.24,0,1.55-.52,1.82-3.68,1.82-6.66,0-13.32,0-19.98,0Z"/>
        </g>
        <g class="cls-4">
          <path class="cls-1" d="m59.38,528.18c0-4.89,0-9.79,0-14.68,0-1.38.57-1.69,3.33-1.71,4.12-.02,8.24-.02,12.37,0,2.61,0,3.32.38,3.33,1.66,0,1.97-.01,3.94,0,5.92.01,1.56.47,1.78,3.57,1.78,6.9,0,13.8,0,20.71,0,.67,0,1.35,0,2.01.06,1.19.09,1.85.47,1.97,1.05.05.26.04.52.04.78,0,6.58,0,13.16,0,19.74,0,.26,0,.52-.04.78-.1.67-.87,1.03-2.2,1.09-.62.03-1.24.03-1.87.03-13.08,0-26.17,0-39.25,0-.57,0-1.15,0-1.72-.03-1.39-.07-2.17-.45-2.21-1.16-.05-.95-.02-1.9-.02-2.85,0-4.16,0-8.31,0-12.47Z"/>
          <path class="cls-1" d="m187.01,544.69c-6.66,0-13.32,0-19.98,0-3.19,0-3.76-.3-3.76-1.87,0-6.65,0-13.3,0-19.95,0-1.32.73-1.72,3.38-1.72,13.56,0,27.12,0,40.67,0,2.56,0,3.36.4,3.36,1.67.02,6.74.02,13.49,0,20.23,0,1.25-.76,1.62-3.27,1.62-6.8.02-13.61,0-20.41,0h0Z"/>
          <path class="cls-1" d="m135.02,544.69c-6.71,0-13.42,0-20.12,0-2.94,0-3.63-.34-3.63-1.81,0-6.65-.01-13.3,0-19.95,0-1.4.77-1.78,3.58-1.78,13.42,0,26.83,0,40.25,0,2.93,0,3.6.36,3.6,1.83,0,6.65,0,13.3,0,19.95,0,1.43-.64,1.76-3.55,1.76-6.71.01-13.42,0-20.12,0Z"/>
          <path class="cls-1" d="m238.92,544.69c-6.66,0-13.32,0-19.98,0-3.13,0-3.69-.28-3.69-1.82,0-6.62,0-13.25,0-19.87,0-1.52.65-1.84,3.69-1.85,13.27,0,26.54,0,39.81,0,.43,0,.86,0,1.29.03,1.76.09,2.48.45,2.52,1.32.03.71.01,1.42.01,2.14,0,6.08,0,12.16,0,18.24,0,1.55-.52,1.82-3.68,1.82-6.66,0-13.32,0-19.98,0Z"/>
        </g>
        <g class="cls-4">
          <path class="cls-1" d="m312.7,526.17c0-4.89,0-9.79,0-14.68,0-1.38.57-1.69,3.33-1.71,4.12-.02,8.24-.02,12.37,0,2.61,0,3.32.38,3.33,1.66,0,1.97-.01,3.94,0,5.92.01,1.56.47,1.78,3.57,1.78,6.9,0,13.8,0,20.71,0,.67,0,1.35,0,2.01.06,1.19.09,1.85.47,1.97,1.05.05.26.04.52.04.78,0,6.58,0,13.16,0,19.74,0,.26,0,.52-.04.78-.1.67-.87,1.03-2.2,1.09-.62.03-1.24.03-1.87.03-13.08,0-26.17,0-39.25,0-.57,0-1.15,0-1.72-.03-1.39-.07-2.17-.45-2.21-1.16-.05-.95-.02-1.9-.02-2.85,0-4.16,0-8.31,0-12.47Z"/>
          <path class="cls-1" d="m440.32,542.68c-6.66,0-13.32,0-19.98,0-3.19,0-3.76-.3-3.76-1.87,0-6.65,0-13.3,0-19.95,0-1.32.73-1.72,3.38-1.72,13.56,0,27.12,0,40.67,0,2.56,0,3.36.4,3.36,1.67.02,6.74.02,13.49,0,20.23,0,1.25-.76,1.62-3.27,1.62-6.8.02-13.61,0-20.41,0h0Z"/>
          <path class="cls-1" d="m388.34,542.68c-6.71,0-13.42,0-20.12,0-2.94,0-3.63-.34-3.63-1.81,0-6.65-.01-13.3,0-19.95,0-1.4.77-1.78,3.58-1.78,13.42,0,26.83,0,40.25,0,2.93,0,3.6.36,3.6,1.83,0,6.65,0,13.3,0,19.95,0,1.43-.64,1.76-3.55,1.76-6.71.01-13.42,0-20.12,0Z"/>
          <path class="cls-1" d="m492.24,542.68c-6.66,0-13.32,0-19.98,0-3.13,0-3.69-.28-3.69-1.82,0-6.62,0-13.25,0-19.87,0-1.52.65-1.84,3.69-1.85,13.27,0,26.54,0,39.81,0,.43,0,.86,0,1.29.03,1.76.09,2.48.45,2.52,1.32.03.71.01,1.42.01,2.14,0,6.08,0,12.16,0,18.24,0,1.55-.52,1.82-3.68,1.82-6.66,0-13.32,0-19.98,0Z"/>
        </g>
        <g class="cls-4">
          <path class="cls-1" d="m562.33,528.18c0-4.89,0-9.79,0-14.68,0-1.38.57-1.69,3.33-1.71,4.12-.02,8.24-.02,12.37,0,2.61,0,3.32.38,3.33,1.66,0,1.97-.01,3.94,0,5.92.01,1.56.47,1.78,3.57,1.78,6.9,0,13.8,0,20.71,0,.67,0,1.35,0,2.01.06,1.19.09,1.85.47,1.97,1.05.05.26.04.52.04.78,0,6.58,0,13.16,0,19.74,0,.26,0,.52-.04.78-.1.67-.87,1.03-2.2,1.09-.62.03-1.24.03-1.87.03-13.08,0-26.17,0-39.25,0-.57,0-1.15,0-1.72-.03-1.39-.07-2.17-.45-2.21-1.16-.05-.95-.02-1.9-.02-2.85,0-4.16,0-8.31,0-12.47Z"/>
          <path class="cls-1" d="m689.95,544.69c-6.66,0-13.32,0-19.98,0-3.19,0-3.76-.3-3.76-1.87,0-6.65,0-13.3,0-19.95,0-1.32.73-1.72,3.38-1.72,13.56,0,27.12,0,40.67,0,2.56,0,3.36.4,3.36,1.67.02,6.74.02,13.49,0,20.23,0,1.25-.76,1.62-3.27,1.62-6.8.02-13.61,0-20.41,0h0Z"/>
          <path class="cls-1" d="m637.97,544.69c-6.71,0-13.42,0-20.12,0-2.94,0-3.63-.34-3.63-1.81,0-6.65-.01-13.3,0-19.95,0-1.4.77-1.78,3.58-1.78,13.42,0,26.83,0,40.25,0,2.93,0,3.6.36,3.6,1.83,0,6.65,0,13.3,0,19.95,0,1.43-.64,1.76-3.55,1.76-6.71.01-13.42,0-20.12,0Z"/>
          <path class="cls-1" d="m741.87,544.69c-6.66,0-13.32,0-19.98,0-3.13,0-3.69-.28-3.69-1.82,0-6.62,0-13.25,0-19.87,0-1.52.65-1.84,3.69-1.85,13.27,0,26.54,0,39.81,0,.43,0,.86,0,1.29.03,1.76.09,2.48.45,2.52,1.32.03.71.01,1.42.01,2.14,0,6.08,0,12.16,0,18.24,0,1.55-.52,1.82-3.68,1.82-6.66,0-13.32,0-19.98,0Z"/>
        </g>
        <g class="cls-4">
          <path class="cls-1" d="m811.96,528.18c0-4.89,0-9.79,0-14.68,0-1.38.57-1.69,3.33-1.71,4.12-.02,8.24-.02,12.37,0,2.61,0,3.32.38,3.33,1.66,0,1.97-.01,3.94,0,5.92.01,1.56.47,1.78,3.57,1.78,6.9,0,13.8,0,20.71,0,.67,0,1.35,0,2.01.06,1.19.09,1.85.47,1.97,1.05.05.26.04.52.04.78,0,6.58,0,13.16,0,19.74,0,.26,0,.52-.04.78-.1.67-.87,1.03-2.2,1.09-.62.03-1.24.03-1.87.03-13.08,0-26.17,0-39.25,0-.57,0-1.15,0-1.72-.03-1.39-.07-2.17-.45-2.21-1.16-.05-.95-.02-1.9-.02-2.85,0-4.16,0-8.31,0-12.47Z"/>
          <path class="cls-1" d="m939.59,544.69c-6.66,0-13.32,0-19.98,0-3.19,0-3.76-.3-3.76-1.87,0-6.65,0-13.3,0-19.95,0-1.32.73-1.72,3.38-1.72,13.56,0,27.12,0,40.67,0,2.56,0,3.36.4,3.36,1.67.02,6.74.02,13.49,0,20.23,0,1.25-.76,1.62-3.27,1.62-6.8.02-13.61,0-20.41,0h0Z"/>
          <path class="cls-1" d="m887.6,544.69c-6.71,0-13.42,0-20.12,0-2.94,0-3.63-.34-3.63-1.81,0-6.65-.01-13.3,0-19.95,0-1.4.77-1.78,3.58-1.78,13.42,0,26.83,0,40.25,0,2.93,0,3.6.36,3.6,1.83,0,6.65,0,13.3,0,19.95,0,1.43-.64,1.76-3.55,1.76-6.71.01-13.42,0-20.12,0Z"/>
          <path class="cls-1" d="m991.5,544.69c-6.66,0-13.32,0-19.98,0-3.13,0-3.69-.28-3.69-1.82,0-6.62,0-13.25,0-19.87,0-1.52.65-1.84,3.69-1.85,13.27,0,26.54,0,39.81,0,.43,0,.86,0,1.29.03,1.76.09,2.48.45,2.52,1.32.03.71.01,1.42.01,2.14,0,6.08,0,12.16,0,18.24,0,1.55-.52,1.82-3.68,1.82-6.66,0-13.32,0-19.98,0Z"/>
        </g>
      </g>
    </g>
  </g>
  <text class="cls-2" transform="translate(271.8 243.74) scale(1.1 1)"><tspan x="0" y="0">Based Tiles</tspan></text>
  <line class="cls-7" x1="146.53" y1="323.85" x2="843.61" y2="323.85"/>
  <line class="cls-7" x1="146.53" y1="422.64" x2="843.61" y2="422.64"/>
  <line class="cls-7" x1="146.53" y1="515.99" x2="843.61" y2="515.99"/>
  <text class="cls-3" transform="translate(157.48 318.08)"><tspan x="0" y="0">Score:</tspan></text>
  <text class="cls-3" transform="translate(157.48 417.2)"><tspan x="0" y="0">Combo:</tspan></text>
  <text class="cls-3" transform="translate(157.48 509.7)"><tspan x="0" y="0">Best Score:</tspan></text>
</svg>